<svg width="1024" height="1024" viewBox="0 0 1024 1024" fill="none" xmlns="http://www.w3.org/2000/svg">
  <g transform="translate(152 116) scale(7.5)">
    <path d="M30 22L25 11L38 21" fill="#140904" opacity="0.94"/>
    <path d="M66 22L71 11L58 21" fill="#140904" opacity="0.94"/>
    <path d="M19 28C28 22 38 20 48 24V66C38.6 62.2 28.8 61.5 19 66.2V28Z" stroke="#140904" stroke-width="5" stroke-linejoin="round"/>
    <path d="M77 28C68 22 58 20 48 24V66C57.4 62.2 67.2 61.5 77 66.2V28Z" stroke="#140904" stroke-width="5" stroke-linejoin="round"/>
    <path d="M48 24V66" stroke="#140904" stroke-width="5" stroke-linecap="round"/>
    <path d="M43 76C28 79 20 88 24 92C29 97 41 91 45 82" stroke="#140904" stroke-width="5" stroke-linecap="round" stroke-linejoin="round"/>
    <path d="M20 88L11 82L14 94L24 92" fill="#140904"/>
    <circle cx="48" cy="24" r="4.5" fill="#140904"/>
  </g>
</svg>
